<svg viewBox="0 0 751 751" fill="#F26B50" xmlns="http://www.w3.org/2000/svg">
  <path fill-rule="evenodd" clip-rule="evenodd" d="M0 0H751V751H0V0ZM183.161 158C178.654 158 175 161.654 175 166.161V204.52C175 209.027 178.654 212.681 183.161 212.681H326.801V347.343H183.161C178.654 347.343 175 350.997 175 355.505V393.863C175 398.37 178.654 402.024 183.161 402.024H326.801V538.319H183.161C178.654 538.319 175 541.973 175 546.48V584.839C175 589.346 178.654 593 183.161 593H373.321C377.828 593 381.482 589.346 381.482 584.839V402.024H454.934V402.018C521.756 401.362 575.722 346.989 575.722 280.012C575.722 213.035 521.756 158.663 454.934 158.006V158H183.161ZM454.934 212.681H381.482V347.343H454.934V347.332C491.555 346.68 521.041 316.789 521.041 280.012C521.041 243.235 491.555 213.345 454.934 212.692V212.681ZM531.041 538.319C525.518 538.319 521.041 542.796 521.041 548.319V583C521.041 588.523 525.518 593 531.041 593H565.722C571.245 593 575.722 588.523 575.722 583V548.319C575.722 542.796 571.245 538.319 565.722 538.319H531.041Z" />
</svg>
