<svg width="234" height="233" viewBox="0 0 234 233" fill="none" xmlns="http://www.w3.org/2000/svg">
<path d="M149.241 78.4866L146.243 78.372C146.279 77.4328 146.297 76.4888 146.297 75.5405C146.297 74.5921 146.279 73.6482 146.243 72.709L149.241 72.5944C149.278 73.5717 149.297 74.5539 149.297 75.5405C149.297 76.5271 149.278 77.5092 149.241 78.4866Z" fill="#A2A2A2"/>
<path d="M148.79 66.7277L145.81 67.073C145.592 65.1889 145.301 63.3273 144.942 61.491L147.886 60.9151C148.26 62.8276 148.563 64.7661 148.79 66.7277Z" fill="#A2A2A2"/>
<path d="M146.531 55.1879L143.641 55.9924C143.134 54.1702 142.558 52.3772 141.915 50.6164L144.733 49.588C145.403 51.4221 146.003 53.2899 146.531 55.1879Z" fill="#A2A2A2"/>
<path d="M142.5 44.1424L139.771 45.3885C138.987 43.6703 138.137 41.9884 137.226 40.346L139.849 38.8902C140.798 40.6008 141.683 42.3527 142.5 44.1424Z" fill="#A2A2A2"/>
<path d="M136.795 33.8612L134.293 35.5173C133.252 33.944 132.151 32.4142 130.993 30.9311L133.358 29.0851C134.563 30.6295 135.71 32.2227 136.795 33.8612Z" fill="#A2A2A2"/>
<path d="M129.559 24.5919L127.345 26.6165C126.073 25.2258 124.748 23.8856 123.373 22.5991L125.422 20.4081C126.854 21.7478 128.235 23.1436 129.559 24.5919Z" fill="#A2A2A2"/>
<path d="M120.971 16.5601L119.099 18.9047C118.409 18.3543 117.71 17.8164 117 17.2914C116.29 17.8164 115.591 18.3543 114.901 18.9047L113.029 16.5601C113.611 16.0956 114.2 15.6397 114.796 15.1925L116.231 13.0723C116.489 13.2465 116.745 13.4223 117 13.5997C117.255 13.4223 117.511 13.2465 117.769 13.0723L119.204 15.1925C119.8 15.6397 120.389 16.0956 120.971 16.5601Z" fill="#A2A2A2"/>
<path d="M111.233 9.96853L109.752 12.5776C108.119 11.6504 106.445 10.786 104.736 9.98758L106.005 7.26937C107.787 8.10149 109.531 9.00233 111.233 9.96853Z" fill="#A2A2A2"/>
<path d="M100.578 4.99351L99.5292 7.80414C97.7736 7.14891 95.9856 6.56106 94.1683 6.04369L94.9898 3.15834C96.8842 3.69769 98.7481 4.31049 100.578 4.99351Z" fill="#A2A2A2"/>
<path d="M89.2694 1.77427L88.6809 4.71597C86.8475 4.34917 84.9887 4.05284 83.1074 3.82994L83.4604 0.850775C85.421 1.08307 87.3583 1.39192 89.2694 1.77427Z" fill="#A2A2A2"/>
<path d="M77.5944 0.389769L77.4772 3.38748C76.539 3.35079 75.5959 3.33228 74.6484 3.33228C73.701 3.33228 72.7579 3.35079 71.8197 3.38748L71.7025 0.389768C72.6798 0.351558 73.6619 0.332275 74.6484 0.332275C75.635 0.332275 76.6171 0.351558 77.5944 0.389769Z" fill="#A2A2A2"/>
<path d="M65.8366 0.850774L66.1895 3.82994C64.3082 4.05284 62.4494 4.34917 60.616 4.71597L60.0275 1.77426C61.9386 1.39191 63.8759 1.08307 65.8366 0.850774Z" fill="#A2A2A2"/>
<path d="M54.3071 3.15834L55.1286 6.04369C53.3113 6.56105 51.5233 7.1489 49.7677 7.80413L48.7187 4.9935C50.5488 4.31048 52.4127 3.69768 54.3071 3.15834Z" fill="#A2A2A2"/>
<path d="M43.2917 7.26936L44.5611 9.98757C42.8514 10.786 41.1781 11.6504 39.5444 12.5776L38.0636 9.96852C39.766 9.00233 41.5098 8.10148 43.2917 7.26936Z" fill="#A2A2A2"/>
<path d="M33.0655 13.0723L34.7474 15.5565C33.1864 16.6133 31.6688 17.7305 30.1979 18.9047L28.3263 16.5601C29.8584 15.337 31.4393 14.1733 33.0655 13.0723Z" fill="#A2A2A2"/>
<path d="M23.8751 20.408L25.9243 22.5991C24.5488 23.8856 23.2234 25.2258 21.9515 26.6165L19.7377 24.5919C21.0623 23.1436 22.4426 21.7478 23.8751 20.408Z" fill="#A2A2A2"/>
<path d="M15.9393 29.0851L18.3041 30.9311C17.1463 32.4142 16.0451 33.944 15.0035 35.5173L12.502 33.8612C13.5868 32.2227 14.7336 30.6295 15.9393 29.0851Z" fill="#A2A2A2"/>
<path d="M9.44815 38.8902L12.0713 40.346C11.1598 41.9884 10.3102 43.6703 9.52559 45.3885L6.79664 44.1423C7.61388 42.3527 8.49882 40.6008 9.44815 38.8902Z" fill="#A2A2A2"/>
<path d="M4.56366 49.588L7.38187 50.6164C6.73931 52.3772 6.1629 54.1702 5.65566 55.9924L2.76555 55.1879C3.2939 53.2899 3.89433 51.4221 4.56366 49.588Z" fill="#A2A2A2"/>
<path d="M1.4106 60.9151L4.35479 61.491C3.99557 63.3273 3.70538 65.1889 3.48713 67.0729L0.507056 66.7277C0.734301 64.7661 1.03647 62.8276 1.4106 60.9151Z" fill="#A2A2A2"/>
<path d="M0.056223 72.5944C0.0188554 73.5717 0 74.5539 0 75.5405C0 76.527 0.0188552 77.5092 0.0562223 78.4865L3.05403 78.3719C3.01812 77.4327 3 76.4888 3 75.5405C3 74.5921 3.01812 73.6482 3.05403 72.709L0.056223 72.5944Z" fill="#A2A2A2"/>
<path d="M0.507055 84.3532L3.48712 84.008C3.70538 85.892 3.99557 87.7536 4.35479 89.5899L1.4106 90.1659C1.03647 88.2534 0.734299 86.3148 0.507055 84.3532Z" fill="#A2A2A2"/>
<path d="M2.76555 95.893L5.65566 95.0885C6.1629 96.9107 6.73931 98.7037 7.38187 100.465L4.56366 101.493C3.89433 99.6588 3.2939 97.7911 2.76555 95.893Z" fill="#A2A2A2"/>
<path d="M6.79664 106.939L9.52559 105.692C10.3102 107.411 11.1598 109.093 12.0713 110.735L9.44815 112.191C8.49881 110.48 7.61387 108.728 6.79664 106.939Z" fill="#A2A2A2"/>
<path d="M12.502 117.22L15.0035 115.564C16.0451 117.137 17.1463 118.667 18.304 120.15L15.9393 121.996C14.7336 120.451 13.5868 118.858 12.502 117.22Z" fill="#A2A2A2"/>
<path d="M19.7377 126.489L21.9515 124.464C23.2234 125.855 24.5488 127.195 25.9243 128.482L23.8751 130.673C22.4425 129.333 21.0623 127.937 19.7377 126.489Z" fill="#A2A2A2"/>
<path d="M28.3263 134.521L30.1979 132.176C31.6688 133.35 33.1864 134.468 34.7474 135.524L33.0655 138.009C31.4393 136.908 29.8584 135.744 28.3263 134.521Z" fill="#A2A2A2"/>
<path d="M38.0636 141.112L39.5444 138.503C41.1781 139.431 42.8514 140.295 44.5611 141.093L43.7859 142.753L45.7922 143.146C45.433 144.982 45.1428 146.844 44.9246 148.728L41.9445 148.382C42.1343 146.744 42.3764 145.122 42.669 143.517C41.1031 142.768 39.5672 141.966 38.0636 141.112Z" fill="#A2A2A2"/>
<path d="M48.7187 146.087L49.7677 143.277C51.5233 143.932 53.3113 144.52 55.1286 145.037L54.3071 147.923C52.4126 147.383 50.5488 146.77 48.7187 146.087Z" fill="#A2A2A2"/>
<path d="M60.0275 149.307L60.616 146.365C62.4494 146.732 64.3081 147.028 66.1895 147.251L65.8365 150.23C63.8759 149.998 61.9386 149.689 60.0275 149.307Z" fill="#A2A2A2"/>
<path d="M71.7025 150.691L71.8197 147.693C72.7579 147.73 73.701 147.749 74.6484 147.749C75.5959 147.749 76.5389 147.73 77.4772 147.693L77.5944 150.691C76.6171 150.729 75.635 150.749 74.6484 150.749C73.6619 150.749 72.6798 150.729 71.7025 150.691Z" fill="#A2A2A2"/>
<path d="M83.4603 150.23L83.1074 147.251C84.9887 147.028 86.8475 146.732 88.6809 146.365L89.2694 149.307C87.3583 149.689 85.421 149.998 83.4603 150.23Z" fill="#A2A2A2"/>
<path d="M94.9898 147.923L94.1683 145.037C95.9856 144.52 97.7736 143.932 99.5292 143.277L100.578 146.087C98.7481 146.77 96.8842 147.383 94.9898 147.923Z" fill="#A2A2A2"/>
<path d="M106.005 143.812L104.736 141.093C106.445 140.295 108.119 139.431 109.752 138.503L111.233 141.112C109.531 142.079 107.787 142.979 106.005 143.812Z" fill="#A2A2A2"/>
<path d="M116.231 138.009L114.796 135.888C114.2 135.441 113.611 134.985 113.029 134.521L114.901 132.176C115.591 132.727 116.29 133.265 117 133.79C117.71 133.265 118.409 132.727 119.099 132.176L120.971 134.521C120.389 134.985 119.8 135.441 119.204 135.888L117.769 138.009C117.511 137.834 117.255 137.659 117 137.481C116.745 137.659 116.489 137.834 116.231 138.009Z" fill="#A2A2A2"/>
<path d="M125.422 130.673L123.373 128.482C124.748 127.195 126.073 125.855 127.345 124.464L129.559 126.489C128.235 127.937 126.854 129.333 125.422 130.673Z" fill="#A2A2A2"/>
<path d="M133.358 121.996L130.993 120.15C132.151 118.667 133.252 117.137 134.293 115.564L136.795 117.22C135.71 118.858 134.563 120.451 133.358 121.996Z" fill="#A2A2A2"/>
<path d="M139.849 112.191L137.226 110.735C138.137 109.093 138.987 107.411 139.771 105.692L142.5 106.939C141.683 108.728 140.798 110.48 139.849 112.191Z" fill="#A2A2A2"/>
<path d="M144.733 101.493L141.915 100.465C142.558 98.7037 143.134 96.9107 143.641 95.0885L146.531 95.893C146.003 97.7911 145.403 99.6588 144.733 101.493Z" fill="#A2A2A2"/>
<path d="M146.948 89.9824L144.942 89.5899C145.301 87.7536 145.592 85.892 145.81 84.008L148.79 84.3532C148.6 85.9916 148.358 87.6139 148.065 89.2183C149.631 89.9674 151.167 90.7698 152.671 91.6231L151.19 94.2322C149.556 93.305 147.883 92.4406 146.173 91.6422L146.948 89.9824Z" fill="#A2A2A2"/>
<path d="M233.944 78.4866L230.946 78.372C230.982 77.4328 231 76.4888 231 75.5405C231 74.5921 230.982 73.6482 230.946 72.709L233.944 72.5944C233.981 73.5717 234 74.5539 234 75.5405C234 76.5271 233.981 77.5092 233.944 78.4866Z" fill="#A2A2A2"/>
<path d="M233.493 66.7277L230.513 67.073C230.295 65.1889 230.005 63.3273 229.645 61.491L232.589 60.9151C232.964 62.8276 233.266 64.7661 233.493 66.7277Z" fill="#A2A2A2"/>
<path d="M231.235 55.1879L228.344 55.9924C227.837 54.1702 227.261 52.3772 226.618 50.6164L229.436 49.588C230.106 51.4221 230.706 53.2899 231.235 55.1879Z" fill="#A2A2A2"/>
<path d="M227.203 44.1424L224.474 45.3885C223.69 43.6703 222.84 41.9884 221.929 40.346L224.552 38.8902C225.501 40.6008 226.386 42.3527 227.203 44.1424Z" fill="#A2A2A2"/>
<path d="M221.498 33.8612L218.997 35.5173C217.955 33.944 216.854 32.4142 215.696 30.9311L218.061 29.0851C219.266 30.6295 220.413 32.2227 221.498 33.8612Z" fill="#A2A2A2"/>
<path d="M214.262 24.5919L212.049 26.6165C210.777 25.2258 209.451 23.8856 208.076 22.5991L210.125 20.4081C211.558 21.7478 212.938 23.1436 214.262 24.5919Z" fill="#A2A2A2"/>
<path d="M205.674 16.5601L203.802 18.9047C202.331 17.7305 200.814 16.6133 199.253 15.5565L200.935 13.0723C202.561 14.1733 204.142 15.3371 205.674 16.5601Z" fill="#A2A2A2"/>
<path d="M195.936 9.96853L194.456 12.5776C192.822 11.6504 191.149 10.786 189.439 9.98758L190.708 7.26937C192.49 8.10149 194.234 9.00233 195.936 9.96853Z" fill="#A2A2A2"/>
<path d="M185.281 4.99351L184.232 7.80414C182.477 7.14891 180.689 6.56106 178.872 6.04369L179.693 3.15834C181.587 3.69769 183.451 4.31049 185.281 4.99351Z" fill="#A2A2A2"/>
<path d="M173.973 1.77427L173.384 4.71597C171.551 4.34917 169.692 4.05284 167.811 3.82994L168.164 0.850775C170.124 1.08307 172.062 1.39192 173.973 1.77427Z" fill="#A2A2A2"/>
<path d="M162.298 0.389769L162.18 3.38748C161.242 3.35079 160.299 3.33228 159.352 3.33228C158.404 3.33228 157.461 3.35079 156.523 3.38748L156.406 0.389768C157.383 0.351558 158.365 0.332275 159.352 0.332275C160.338 0.332275 161.32 0.351558 162.298 0.389769Z" fill="#A2A2A2"/>
<path d="M150.54 0.850774L150.893 3.82994C149.011 4.05284 147.153 4.34917 145.319 4.71597L144.731 1.77426C146.642 1.39191 148.579 1.08307 150.54 0.850774Z" fill="#A2A2A2"/>
<path d="M139.01 3.15834L139.832 6.04369C138.014 6.56105 136.227 7.1489 134.471 7.80413L133.422 4.9935C135.252 4.31048 137.116 3.69768 139.01 3.15834Z" fill="#A2A2A2"/>
<path d="M127.995 7.26936L129.264 9.98757C127.555 10.786 125.881 11.6504 124.248 12.5776L122.767 9.96852C124.469 9.00233 126.213 8.10148 127.995 7.26936Z" fill="#A2A2A2"/>
<path d="M108.578 20.408L110.627 22.5991C109.252 23.8856 107.927 25.2258 106.655 26.6165L104.441 24.5919C105.765 23.1436 107.146 21.7478 108.578 20.408Z" fill="#A2A2A2"/>
<path d="M100.642 29.0851L103.007 30.9311C101.85 32.4142 100.748 33.944 99.7067 35.5173L97.2052 33.8612C98.2899 32.2227 99.4368 30.6295 100.642 29.0851Z" fill="#A2A2A2"/>
<path d="M94.1513 38.8902L96.7745 40.346C95.863 41.9884 95.0134 43.6703 94.2288 45.3885L91.4998 44.1423C92.3171 42.3527 93.202 40.6008 94.1513 38.8902Z" fill="#A2A2A2"/>
<path d="M89.2668 49.588L92.0851 50.6164C91.4425 52.3772 90.8661 54.1702 90.3588 55.9924L87.4687 55.1879C87.9971 53.2899 88.5975 51.4221 89.2668 49.588Z" fill="#A2A2A2"/>
<path d="M86.1138 60.9151L89.058 61.491C88.6988 63.3273 88.4086 65.1889 88.1903 67.0729L85.2102 66.7277C85.4375 64.7661 85.7397 62.8276 86.1138 60.9151Z" fill="#A2A2A2"/>
<path d="M84.7594 72.5944C84.722 73.5717 84.7032 74.5539 84.7032 75.5405C84.7032 76.527 84.722 77.5092 84.7594 78.4865L87.7572 78.3719C87.7213 77.4327 87.7032 76.4888 87.7032 75.5405C87.7032 74.5921 87.7213 73.6482 87.7572 72.709L84.7594 72.5944Z" fill="#A2A2A2"/>
<path d="M85.2102 84.3532L88.1903 84.008C88.4086 85.892 88.6988 87.7536 89.058 89.5899L86.1138 90.1659C85.7397 88.2534 85.4375 86.3148 85.2102 84.3532Z" fill="#A2A2A2"/>
<path d="M87.4687 95.893L90.3588 95.0885C90.8661 96.9107 91.4425 98.7037 92.0851 100.465L89.2668 101.493C88.5975 99.6588 87.9971 97.7911 87.4687 95.893Z" fill="#A2A2A2"/>
<path d="M91.4998 106.939L94.2288 105.692C95.0134 107.411 95.863 109.093 96.7745 110.735L94.1513 112.191C93.202 110.48 92.3171 108.728 91.4998 106.939Z" fill="#A2A2A2"/>
<path d="M97.2052 117.22L99.7067 115.564C100.748 117.137 101.85 118.667 103.007 120.15L100.642 121.996C99.4368 120.451 98.2899 118.858 97.2052 117.22Z" fill="#A2A2A2"/>
<path d="M104.441 126.489L106.655 124.464C107.927 125.855 109.252 127.195 110.627 128.482L108.578 130.673C107.146 129.333 105.765 127.937 104.441 126.489Z" fill="#A2A2A2"/>
<path d="M122.767 141.112L124.248 138.503C125.881 139.431 127.555 140.295 129.264 141.093L127.995 143.812C126.213 142.979 124.469 142.079 122.767 141.112Z" fill="#A2A2A2"/>
<path d="M133.422 146.087L134.471 143.277C136.226 143.932 138.014 144.52 139.832 145.037L139.01 147.923C137.116 147.383 135.252 146.77 133.422 146.087Z" fill="#A2A2A2"/>
<path d="M144.731 149.307L145.319 146.365C147.153 146.732 149.011 147.028 150.893 147.251L150.54 150.23C148.579 149.998 146.642 149.689 144.731 149.307Z" fill="#A2A2A2"/>
<path d="M156.406 150.691L156.523 147.693C157.461 147.73 158.404 147.749 159.352 147.749C160.299 147.749 161.242 147.73 162.18 147.693L162.298 150.691C161.32 150.729 160.338 150.749 159.352 150.749C158.365 150.749 157.383 150.729 156.406 150.691Z" fill="#A2A2A2"/>
<path d="M168.164 150.23L167.811 147.251C169.692 147.028 171.551 146.732 173.384 146.365L173.973 149.307C172.062 149.689 170.124 149.998 168.164 150.23Z" fill="#A2A2A2"/>
<path d="M179.693 147.923L178.872 145.037C180.689 144.52 182.477 143.932 184.232 143.277L185.281 146.087C183.451 146.77 181.587 147.383 179.693 147.923Z" fill="#A2A2A2"/>
<path d="M190.708 143.812L189.439 141.093C191.149 140.295 192.822 139.431 194.456 138.503L195.936 141.112C194.234 142.079 192.49 142.979 190.708 143.812Z" fill="#A2A2A2"/>
<path d="M200.935 138.009L199.253 135.524C200.814 134.468 202.331 133.35 203.802 132.176L205.674 134.521C204.142 135.744 202.561 136.908 200.935 138.009Z" fill="#A2A2A2"/>
<path d="M210.125 130.673L208.076 128.482C209.451 127.195 210.777 125.855 212.049 124.464L214.262 126.489C212.938 127.937 211.558 129.333 210.125 130.673Z" fill="#A2A2A2"/>
<path d="M218.061 121.996L215.696 120.15C216.854 118.667 217.955 117.137 218.997 115.564L221.498 117.22C220.413 118.858 219.266 120.451 218.061 121.996Z" fill="#A2A2A2"/>
<path d="M224.552 112.191L221.929 110.735C222.84 109.093 223.69 107.411 224.474 105.692L227.203 106.939C226.386 108.728 225.501 110.48 224.552 112.191Z" fill="#A2A2A2"/>
<path d="M229.436 101.493L226.618 100.465C227.261 98.7037 227.837 96.9107 228.344 95.0885L231.235 95.893C230.706 97.7911 230.106 99.6588 229.436 101.493Z" fill="#A2A2A2"/>
<path d="M232.589 90.1659L229.645 89.5899C230.005 87.7536 230.295 85.892 230.513 84.008L233.493 84.3532C233.266 86.3148 232.964 88.2534 232.589 90.1659Z" fill="#A2A2A2"/>
<path d="M190.678 160.141C190.715 159.164 190.734 158.182 190.734 157.195C190.734 156.208 190.715 155.226 190.678 154.249L187.68 154.364C187.716 155.303 187.734 156.247 187.734 157.195C187.734 158.143 187.716 159.087 187.68 160.027L190.678 160.141Z" fill="#A2A2A2"/>
<path d="M190.227 148.382C190 146.421 189.698 144.482 189.324 142.57L186.38 143.146C186.739 144.982 187.029 146.844 187.247 148.728L190.227 148.382Z" fill="#A2A2A2"/>
<path d="M187.969 136.843C187.44 134.944 186.84 133.077 186.171 131.243L183.352 132.271C183.995 134.032 184.571 135.825 185.079 137.647L187.969 136.843Z" fill="#A2A2A2"/>
<path d="M183.938 125.797C183.12 124.007 182.236 122.255 181.286 120.545L178.663 122.001C179.575 123.643 180.424 125.325 181.209 127.043L183.938 125.797Z" fill="#A2A2A2"/>
<path d="M178.232 115.516C177.148 113.877 176.001 112.284 174.795 110.74L172.43 112.586C173.588 114.069 174.689 115.599 175.731 117.172L178.232 115.516Z" fill="#A2A2A2"/>
<path d="M170.997 106.246C169.672 104.798 168.292 103.402 166.859 102.063L164.81 104.254C166.186 105.54 167.511 106.88 168.783 108.271L170.997 106.246Z" fill="#A2A2A2"/>
<path d="M162.408 98.2147C160.876 96.9917 159.295 95.8279 157.669 94.7269L155.987 97.2111C157.548 98.2679 159.066 99.3851 160.536 100.559L162.408 98.2147Z" fill="#A2A2A2"/>
<path d="M142.016 86.6481C140.186 85.9651 138.322 85.3523 136.427 84.8129L135.606 87.6983C137.423 88.2157 139.211 88.8035 140.967 89.4587L142.016 86.6481Z" fill="#A2A2A2"/>
<path d="M130.707 83.4289C128.796 83.0465 126.858 82.7377 124.898 82.5054L124.545 85.4845C126.426 85.7074 128.285 86.0038 130.118 86.3706L130.707 83.4289Z" fill="#A2A2A2"/>
<path d="M119.032 82.0444C118.055 82.0062 117.072 81.9869 116.086 81.9869C115.099 81.9869 114.117 82.0062 113.14 82.0444L113.257 85.0421C114.195 85.0054 115.138 84.9869 116.086 84.9869C117.033 84.9869 117.976 85.0054 118.915 85.0421L119.032 82.0444Z" fill="#A2A2A2"/>
<path d="M107.274 82.5054C105.313 82.7377 103.376 83.0465 101.465 83.4289L102.053 86.3706C103.887 86.0038 105.746 85.7074 107.627 85.4845L107.274 82.5054Z" fill="#A2A2A2"/>
<path d="M95.7446 84.8129C93.8501 85.3523 91.9862 85.9651 90.1562 86.6481L91.2052 89.4587C92.9608 88.8035 94.7487 88.2157 96.566 87.6983L95.7446 84.8129Z" fill="#A2A2A2"/>
<path d="M84.7291 88.924C82.9473 89.7561 81.2035 90.6569 79.5011 91.6231L80.9818 94.2322C82.6156 93.305 84.2889 92.4406 85.9985 91.6422L84.7291 88.924Z" fill="#A2A2A2"/>
<path d="M74.503 94.7269C72.8767 95.8279 71.2958 96.9916 69.7637 98.2147L71.6353 100.559C73.1063 99.3851 74.6239 98.2679 76.1848 97.2111L74.503 94.7269Z" fill="#A2A2A2"/>
<path d="M65.3126 102.063C63.88 103.402 62.4997 104.798 61.1752 106.246L63.389 108.271C64.6609 106.88 65.9862 105.54 67.3617 104.254L65.3126 102.063Z" fill="#A2A2A2"/>
<path d="M57.3767 110.74C56.1711 112.284 55.0242 113.877 53.9395 115.516L56.4409 117.172C57.4825 115.599 58.5838 114.069 59.7415 112.586L57.3767 110.74Z" fill="#A2A2A2"/>
<path d="M50.8856 120.545C49.9363 122.255 49.0513 124.007 48.2341 125.797L50.963 127.043C51.7476 125.325 52.5972 123.643 53.5087 122.001L50.8856 120.545Z" fill="#A2A2A2"/>
<path d="M46.0011 131.243C45.3318 133.077 44.7313 134.944 44.203 136.843L47.0931 137.647C47.6003 135.825 48.1768 134.032 48.8193 132.271L46.0011 131.243Z" fill="#A2A2A2"/>
<path d="M41.4374 157.195C41.4374 156.208 41.4563 155.226 41.4937 154.249L44.4915 154.364C44.4556 155.303 44.4374 156.247 44.4374 157.195C44.4374 158.143 44.4556 159.087 44.4915 160.027L41.4937 160.141C41.4563 159.164 41.4374 158.182 41.4374 157.195Z" fill="#A2A2A2"/>
<path d="M41.9445 166.008C42.1717 167.969 42.4739 169.908 42.848 171.82L45.7922 171.245C45.433 169.408 45.1428 167.547 44.9246 165.663L41.9445 166.008Z" fill="#A2A2A2"/>
<path d="M44.203 177.548C44.7313 179.446 45.3318 181.313 46.0011 183.148L48.8193 182.119C48.1768 180.358 47.6003 178.565 47.0931 176.743L44.203 177.548Z" fill="#A2A2A2"/>
<path d="M48.2341 188.593C49.0513 190.383 49.9363 192.135 50.8856 193.845L53.5087 192.39C52.5972 190.747 51.7476 189.065 50.963 187.347L48.2341 188.593Z" fill="#A2A2A2"/>
<path d="M53.9394 198.874C55.0242 200.513 56.1711 202.106 57.3767 203.65L59.7415 201.804C58.5838 200.321 57.4825 198.792 56.4409 197.218L53.9394 198.874Z" fill="#A2A2A2"/>
<path d="M61.1752 208.144C62.4997 209.592 63.88 210.988 65.3125 212.327L67.3617 210.136C65.9862 208.85 64.6609 207.51 63.389 206.119L61.1752 208.144Z" fill="#A2A2A2"/>
<path d="M69.7637 216.175C71.2958 217.398 72.8767 218.562 74.5029 219.663L76.1848 217.179C74.6238 216.122 73.1062 215.005 71.6353 213.831L69.7637 216.175Z" fill="#A2A2A2"/>
<path d="M79.5011 222.767C81.2034 223.733 82.9473 224.634 84.7291 225.466L85.9985 222.748C84.2889 221.95 82.6156 221.085 80.9818 220.158L79.5011 222.767Z" fill="#A2A2A2"/>
<path d="M90.1562 227.742C91.9862 228.425 93.8501 229.038 95.7446 229.577L96.566 226.692C94.7487 226.174 92.9607 225.587 91.2051 224.931L90.1562 227.742Z" fill="#A2A2A2"/>
<path d="M101.465 230.961C103.376 231.344 105.313 231.652 107.274 231.885L107.627 228.906C105.746 228.683 103.887 228.386 102.053 228.02L101.465 230.961Z" fill="#A2A2A2"/>
<path d="M113.14 232.346C114.117 232.384 115.099 232.403 116.086 232.403C117.072 232.403 118.055 232.384 119.032 232.346L118.915 229.348C117.976 229.385 117.033 229.403 116.086 229.403C115.138 229.403 114.195 229.385 113.257 229.348L113.14 232.346Z" fill="#A2A2A2"/>
<path d="M124.898 231.885C126.858 231.652 128.796 231.344 130.707 230.961L130.118 228.02C128.285 228.386 126.426 228.683 124.545 228.906L124.898 231.885Z" fill="#A2A2A2"/>
<path d="M136.427 229.577C138.322 229.038 140.186 228.425 142.016 227.742L140.967 224.931C139.211 225.587 137.423 226.174 135.606 226.692L136.427 229.577Z" fill="#A2A2A2"/>
<path d="M147.443 225.466C149.225 224.634 150.968 223.733 152.671 222.767L151.19 220.158C149.556 221.085 147.883 221.95 146.173 222.748L147.443 225.466Z" fill="#A2A2A2"/>
<path d="M157.669 219.663C159.295 218.562 160.876 217.398 162.408 216.175L160.536 213.831C159.066 215.005 157.548 216.122 155.987 217.179L157.669 219.663Z" fill="#A2A2A2"/>
<path d="M166.859 212.327C168.292 210.988 169.672 209.592 170.997 208.144L168.783 206.119C167.511 207.51 166.186 208.85 164.81 210.136L166.859 212.327Z" fill="#A2A2A2"/>
<path d="M174.795 203.65C176.001 202.106 177.148 200.513 178.232 198.874L175.731 197.218C174.689 198.792 173.588 200.321 172.43 201.804L174.795 203.65Z" fill="#A2A2A2"/>
<path d="M181.286 193.845C182.236 192.135 183.12 190.383 183.938 188.593L181.209 187.347C180.424 189.065 179.575 190.747 178.663 192.39L181.286 193.845Z" fill="#A2A2A2"/>
<path d="M186.171 183.148C186.84 181.313 187.44 179.446 187.969 177.548L185.079 176.743C184.571 178.565 183.995 180.358 183.352 182.119L186.171 183.148Z" fill="#A2A2A2"/>
<path d="M189.324 171.82C189.698 169.908 190 167.969 190.227 166.008L187.247 165.663C187.029 167.547 186.739 169.408 186.38 171.245L189.324 171.82Z" fill="#A2A2A2"/>
<path d="M148.191 89.2183C144.551 109.178 133.089 126.381 117.126 137.481C100.954 126.236 89.4023 108.729 85.922 88.4359C95.1789 84.2905 105.428 81.9869 116.212 81.9869C127.656 81.9869 138.498 84.5813 148.191 89.2183Z" fill="#F26B50"/>
</svg>
